<svg fill="none" xmlns="http://www.w3.org/2000/svg" viewBox="0 0 20 20"><path d="M9.485 2.083H4.472L5.79 3.93v12.137l-1.583 1.847h11.345l1.847-2.639H9.485V2.083z" fill="url(#lol_svg__paint0_linear_3684_16024)"></path><path d="M4.736 5.356a7.364 7.364 0 00-2.111 5.17c0 2.008.801 3.83 2.102 5.161l.009-.01v-1.65a6.303 6.303 0 01-1.056-3.5c0-1.295.389-2.5 1.056-3.502V5.356z" fill="url(#lol_svg__paint1_linear_3684_16024)"></path><path d="M15.156 14.22A6.333 6.333 0 0010.54 4.216V3.157a7.388 7.388 0 015.872 11.063h-1.256z" fill="url(#lol_svg__paint2_linear_3684_16024)"></path><path d="M13.78 14.22a5.277 5.277 0 00-3.24-8.944v8.944h3.24z" fill="url(#lol_svg__paint3_radial_3684_16024)"></path><defs><linearGradient id="lol_svg__paint0_linear_3684_16024" x1="0.852" y1="17.914" x2="15.419" y2="0.433" gradientUnits="userSpaceOnUse"><stop stop-color="#AF893D"></stop><stop offset="0.234" stop-color="#D29D40"></stop><stop offset="0.531" stop-color="#FFCC74"></stop><stop offset="0.823" stop-color="#E8B55D"></stop></linearGradient><linearGradient id="lol_svg__paint1_linear_3684_16024" x1="0.852" y1="17.914" x2="15.419" y2="0.433" gradientUnits="userSpaceOnUse"><stop stop-color="#AF893D"></stop><stop offset="0.234" stop-color="#D29D40"></stop><stop offset="0.531" stop-color="#FFCC74"></stop><stop offset="0.823" stop-color="#E8B55D"></stop></linearGradient><linearGradient id="lol_svg__paint2_linear_3684_16024" x1="0.852" y1="17.914" x2="15.419" y2="0.433" gradientUnits="userSpaceOnUse"><stop stop-color="#AF893D"></stop><stop offset="0.234" stop-color="#D29D40"></stop><stop offset="0.531" stop-color="#FFCC74"></stop><stop offset="0.823" stop-color="#E8B55D"></stop></linearGradient><radialGradient id="lol_svg__paint3_radial_3684_16024" cx="0" cy="0" r="1" gradientUnits="userSpaceOnUse" gradientTransform="rotate(-47.911 19.69 -1.189) scale(11.0214)"><stop offset="0.119" stop-color="#117D8D"></stop><stop offset="0.642" stop-color="#2FEBEB"></stop><stop offset="0.866" stop-color="#117D8D"></stop></radialGradient></defs></svg>